<svg width="46" height="45" viewBox="0 0 46 45" fill="none" xmlns="http://www.w3.org/2000/svg">
<g clip-path="url(#clip0_16_85)">
<path d="M17.2499 35.625C7.66659 38.4375 7.66659 30.9375 3.83325 30M30.6666 41.25V33.9938C30.7385 33.0997 30.615 32.2009 30.3044 31.3571C29.9937 30.5133 29.503 29.7439 28.8649 29.1C34.8833 28.4438 41.2083 26.2125 41.2083 15.975C41.2078 13.3572 40.1784 10.8398 38.3333 8.94375C39.207 6.65345 39.1452 4.12191 38.1608 1.87501C38.1608 1.87501 35.8991 1.21876 30.6666 4.65001C26.2736 3.4853 21.6429 3.4853 17.2499 4.65001C12.0174 1.21876 9.75575 1.87501 9.75575 1.87501C8.77131 4.12191 8.70953 6.65345 9.58325 8.94375C7.72433 10.8538 6.69392 13.394 6.70825 16.0313C6.70825 26.1938 13.0333 28.425 19.0516 29.1563C18.421 29.7937 17.9347 30.5539 17.6243 31.3874C17.3138 32.2208 17.1863 33.1089 17.2499 33.9938V41.25" stroke="#14AE5C" stroke-width="4" stroke-linecap="round" stroke-linejoin="round"/>
</g>
<defs>
<clipPath id="clip0_16_85">
<rect width="46" height="45" fill="white"/>
</clipPath>
</defs>
</svg>
