<svg width="45" height="46" viewBox="0 0 45 46" fill="none" xmlns="http://www.w3.org/2000/svg">
<path d="M30 15.3333C32.9837 15.3333 35.8452 16.5449 37.955 18.7016C40.0647 20.8583 41.25 23.7833 41.25 26.8333V40.25H33.75V26.8333C33.75 25.8167 33.3549 24.8416 32.6516 24.1227C31.9484 23.4038 30.9946 23 30 23C29.0054 23 28.0516 23.4038 27.3484 24.1227C26.6451 24.8416 26.25 25.8167 26.25 26.8333V40.25H18.75V26.8333C18.75 23.7833 19.9353 20.8583 22.045 18.7016C24.1548 16.5449 27.0163 15.3333 30 15.3333Z" stroke="#14AE5C" stroke-width="4" stroke-linecap="round" stroke-linejoin="round"/>
<path d="M11.25 17.25H3.75V40.25H11.25V17.25Z" stroke="#14AE5C" stroke-width="4" stroke-linecap="round" stroke-linejoin="round"/>
<path d="M7.5 11.5C9.57107 11.5 11.25 9.78374 11.25 7.66665C11.25 5.54955 9.57107 3.83331 7.5 3.83331C5.42893 3.83331 3.75 5.54955 3.75 7.66665C3.75 9.78374 5.42893 11.5 7.5 11.5Z" stroke="#14AE5C" stroke-width="4" stroke-linecap="round" stroke-linejoin="round"/>
</svg>
